<?xml version="1.0" encoding="utf-8"?>
<!-- Generator: Adobe Illustrator 24.1.1, SVG Export Plug-In . SVG Version: 6.00 Build 0)  -->
<svg version="1.1" id="Layer_1" xmlns="http://www.w3.org/2000/svg" xmlns:xlink="http://www.w3.org/1999/xlink" x="0px" y="0px"
	 viewBox="0 0 512 512" style="enable-background:new 0 0 512 512;" xml:space="preserve">
<style type="text/css">
	.st0{fill:#dc3546;}
</style>
<g id="XMLID_2_">
	<path id="XMLID_7_" class="st0" d="M98.6,412.5c0-5.1-1.7-10.3-6-13.7c-4.3-4.3-8.6-6-13.7-6c-5.1,0-10.3,1.7-13.7,6
		c-4.3,4.3-6,8.6-6,13.7s1.7,10.3,6,13.7c4.3,4.3,8.6,6,13.7,6c5.1,0,10.3-1.7,13.7-6C96.1,422.8,98.6,418.5,98.6,412.5z M452,235.8
		c0-10.3-4.3-19.7-12-27.4c-7.7-7.7-17.2-12-27.4-12H304.5c0-12,5.1-28.3,14.6-48.9c9.4-20.6,14.6-36.9,14.6-48.9
		c0-19.7-3.4-35.2-9.4-44.6c-6.9-9.4-19.7-14.6-39.5-14.6c-5.1,5.1-9.4,13.7-12,25.7s-6,24.9-9.4,38.6c-3.4,13.7-10.3,24.9-18,33.4
		c-4.3,4.3-12,13.7-24,28.3c-0.9,0.9-3.4,4.3-6.9,9.4c-4.3,5.1-6.9,9.4-9.4,12.9s-6,7.7-10.3,12.9c-4.3,5.1-8.6,10.3-12,13.7
		c-3.4,3.4-7.7,6.9-12,11.1c-4.3,3.4-8.6,6.9-12,8.6s-7.7,2.6-11.1,2.6h-9.4v196.4h9.4c2.6,0,6,0,9.4,0.9c3.4,0.9,6.9,0.9,10.3,1.7
		c2.6,0.9,6.9,1.7,12,3.4c5.1,1.7,8.6,2.6,11.1,3.4c2.6,0.9,6,1.7,11.1,3.4c5.1,1.7,7.7,2.6,8.6,3.4c42.9,14.6,78,22.3,104.6,22.3
		h36.9c39.5,0,59.2-17.2,59.2-51.5c0-5.1-0.9-11.1-1.7-17.2c6-3.4,11.1-8.6,14.6-16.3c3.4-7.7,5.1-14.6,5.1-22.3
		c0-7.7-1.7-14.6-5.1-21.4c11.1-10.3,16.3-22.3,16.3-36.9c0-5.1-0.9-11.1-3.4-17.2c-1.7-6-4.3-11.1-7.7-14.6c6.9,0,12-5.1,16.3-14.6
		C450.3,251.3,452,242.7,452,235.8z M491.4,235.8c0,18-5.1,35.2-15.4,49.7c1.7,6.9,2.6,13.7,2.6,21.4c0,15.4-4.3,30.9-12,44.6
		c0.9,4.3,0.9,8.6,0.9,12.9c0,20.6-6,38.6-18,54.9c0,28.3-8.6,50.6-25.7,67.8c-18,16.3-41.2,24.9-69.5,24.9h-39.5
		c-19.7,0-39.5-2.6-58.3-6.9s-41.2-11.1-66.9-19.7c-24-8.6-37.7-12-42-12H59.2c-11.1,0-19.7-3.4-27.4-11.1
		c-7.7-7.7-11.1-17.2-11.1-27.4v-199c0-11.1,3.4-19.7,11.1-27.4c7.7-7.7,17.2-11.1,27.4-11.1h84c7.7-5.1,21.4-20.6,42-48
		c12-15.4,23.2-28.3,32.6-39.5c5.1-5.1,8.6-13.7,11.1-26.6c2.6-12,5.1-25.7,9.4-38.6c4.3-13.7,10.3-24.9,18.9-33.4
		C265,3.4,274.4,0,284.7,0c17.2,0,32.6,3.4,46.3,10.3c13.7,6.9,24,17.2,31.7,30.9c6.9,13.7,11.1,33.4,11.1,57.5
		c0,18.9-5.1,38.6-14.6,59.2h54c21.4,0,39.5,7.7,54.9,23.2C483.7,196.4,491.4,214.4,491.4,235.8z"/>
</g>
</svg>
